<svg id="Layer_1" data-name="Layer 1" xmlns="http://www.w3.org/2000/svg" viewBox="0 0 150 150"><title>ellen_subfeature</title><desc>Television with Casper logo</desc><rect x="11.77" y="65.54" width="126" height="80.68" fill="#fff"/><rect x="26.4" y="76.86" width="73.59" height="56.04" fill="#d8eff5"/><path d="M99,135.49H25.4a1.6,1.6,0,0,1-1.6-1.6v-56a1.6,1.6,0,0,1,1.6-1.6H99a1.6,1.6,0,0,1,1.6,1.6v56A1.6,1.6,0,0,1,99,135.49Zm-72-3.2H97.39V79.46H27v52.83Z" fill="#273376"/><rect x="115.89" y="84.1" width="7.71" height="7.71" rx="3.85" ry="3.85" transform="translate(-27.12 110.43) rotate(-45)" fill="#273376"/><rect x="115.89" y="98.15" width="7.71" height="7.71" rx="3.85" ry="3.85" transform="translate(-37.05 114.55) rotate(-45)" fill="#273376"/><path d="M127.27,119.52H112.44a1.6,1.6,0,0,1,0-3.2h14.83A1.6,1.6,0,0,1,127.27,119.52Z" fill="#273376"/><path d="M127.27,127.51H112.44a1.6,1.6,0,0,1,0-3.2h14.83A1.6,1.6,0,0,1,127.27,127.51Z" fill="#273376"/><path d="M127.27,135.49H112.44a1.6,1.6,0,0,1,0-3.2h14.83A1.6,1.6,0,0,1,127.27,135.49Z" fill="#273376"/><path d="M137.77,63.93H79.95l20-36.16a1.6,1.6,0,1,0-2.8-1.55L76.29,63.93h-2a1.6,1.6,0,0,0-.17-0.21l-24-24A1.6,1.6,0,0,0,47.9,42L69.81,63.93h-58a1.6,1.6,0,0,0-1.6,1.6v80.68a1.6,1.6,0,0,0,1.6,1.6h126a1.6,1.6,0,0,0,1.6-1.6V65.54A1.6,1.6,0,0,0,137.77,63.93Zm-1.6,80.68H13.37V67.14h122.8v77.47Z" fill="#273376"/><path d="M69.26,111.87A9.59,9.59,0,0,1,60.54,117a9.87,9.87,0,0,1-7.35-3.15,11.45,11.45,0,0,1,0-15.49,9.87,9.87,0,0,1,7.35-3.15,9.46,9.46,0,0,1,6.05,2,7.83,7.83,0,0,0,5,1.93,6.68,6.68,0,0,0,6.5-5.33l-4.67-1a1.89,1.89,0,0,1-1.83,1.55c-0.64,0-1-.26-2.07-1a13.12,13.12,0,0,0-9-3,15.81,15.81,0,0,0,0,31.63,15.17,15.17,0,0,0,13.21-7.53Z" fill="#fff"/></svg>
